<?xml version="1.0" encoding="UTF-8" standalone="no"?>
<!DOCTYPE svg PUBLIC "-//W3C//DTD SVG 1.1//EN" "http://www.w3.org/Graphics/SVG/1.1/DTD/svg11.dtd">
<svg width="100%" height="100%" viewBox="0 0 377 81" version="1.1" xmlns="http://www.w3.org/2000/svg" xmlns:xlink="http://www.w3.org/1999/xlink" xml:space="preserve" xmlns:serif="http://www.serif.com/" style="fill-rule:evenodd;clip-rule:evenodd;stroke-linejoin:round;stroke-miterlimit:2;">
    <g transform="matrix(1,0,0,1,-819.99,-661)">
        <g transform="matrix(92,0,0,92,813.76,722.333)">
            <path d="M0.068,0.125l-0,-0.792l0.224,0l-0,0.085l-0.128,-0l-0,0.623l0.128,-0l-0,0.084l-0.224,0Z" style="fill:#2b2533;fill-rule:nonzero;"/>
        </g>
        <g transform="matrix(92,0,0,92,854.427,722.333)">
            <path d="M0.204,0.009c-0.033,-0 -0.062,-0.009 -0.089,-0.025c-0.027,-0.016 -0.048,-0.039 -0.064,-0.067c-0.015,-0.029 -0.023,-0.061 -0.023,-0.096c0,-0.033 0.007,-0.064 0.02,-0.094c0.013,-0.029 0.031,-0.056 0.054,-0.078c0.023,-0.023 0.049,-0.042 0.078,-0.055c0.029,-0.013 0.059,-0.019 0.09,-0.019c0.028,-0 0.054,0.005 0.078,0.015c0.025,0.011 0.045,0.026 0.062,0.045l0.012,-0.052l0.096,0l-0.104,0.417l-0.095,0l0.01,-0.04c-0.017,0.014 -0.036,0.026 -0.057,0.035c-0.021,0.009 -0.044,0.014 -0.068,0.014Zm0.03,-0.097c0.024,-0 0.046,-0.006 0.066,-0.019c0.02,-0.013 0.036,-0.03 0.048,-0.05c0.012,-0.021 0.018,-0.043 0.018,-0.066c-0,-0.02 -0.004,-0.038 -0.013,-0.053c-0.009,-0.016 -0.021,-0.029 -0.036,-0.038c-0.015,-0.009 -0.033,-0.014 -0.054,-0.014c-0.023,-0 -0.045,0.006 -0.065,0.019c-0.02,0.013 -0.036,0.029 -0.048,0.05c-0.012,0.02 -0.018,0.042 -0.018,0.066c-0,0.019 0.004,0.036 0.013,0.052c0.008,0.016 0.02,0.029 0.036,0.039c0.016,0.009 0.033,0.014 0.053,0.014Z" style="fill:#2b2533;fill-rule:nonzero;"/>
        </g>
        <g transform="matrix(92,0,0,92,902.024,722.333)">
            <path d="M-0.001,-0l0.104,-0.417l0.099,0l-0.017,0.068c0.021,-0.023 0.044,-0.041 0.069,-0.053c0.026,-0.013 0.054,-0.019 0.083,-0.019l0,0.099c-0.008,-0.003 -0.018,-0.004 -0.029,-0.004c-0.035,-0 -0.066,0.012 -0.094,0.036c-0.027,0.024 -0.047,0.06 -0.059,0.11l-0.047,0.18l-0.109,-0Z" style="fill:#2b2533;fill-rule:nonzero;"/>
        </g>
        <g transform="matrix(92,0,0,92,931.253,722.333)">
            <path d="M-0.001,-0l0.104,-0.417l0.099,0l-0.017,0.068c0.021,-0.023 0.044,-0.041 0.069,-0.053c0.026,-0.013 0.054,-0.019 0.083,-0.019l0,0.099c-0.008,-0.003 -0.018,-0.004 -0.029,-0.004c-0.035,-0 -0.066,0.012 -0.094,0.036c-0.027,0.024 -0.047,0.06 -0.059,0.11l-0.047,0.18l-0.109,-0Z" style="fill:#2b2533;fill-rule:nonzero;"/>
        </g>
        <g transform="matrix(92,0,0,92,959.205,722.333)">
            <path d="M0.23,0.011c-0.037,0 -0.071,-0.008 -0.102,-0.025c-0.03,-0.016 -0.055,-0.039 -0.073,-0.069c-0.018,-0.029 -0.027,-0.063 -0.027,-0.1c0,-0.032 0.007,-0.063 0.021,-0.093c0.013,-0.029 0.032,-0.056 0.056,-0.078c0.023,-0.023 0.05,-0.041 0.081,-0.054c0.031,-0.014 0.063,-0.02 0.097,-0.02c0.029,-0 0.055,0.005 0.079,0.014c0.024,0.009 0.045,0.023 0.062,0.039l-0.054,0.111c-0.007,-0.02 -0.019,-0.035 -0.036,-0.048c-0.018,-0.012 -0.039,-0.018 -0.064,-0.018c-0.025,0 -0.048,0.007 -0.069,0.02c-0.02,0.012 -0.037,0.029 -0.049,0.05c-0.013,0.021 -0.019,0.043 -0.019,0.067c0,0.03 0.01,0.055 0.03,0.075c0.02,0.02 0.046,0.031 0.078,0.031c0.031,-0 0.058,-0.008 0.08,-0.024c0.023,-0.016 0.039,-0.033 0.049,-0.05l0,0.128c-0.018,0.014 -0.039,0.026 -0.063,0.033c-0.024,0.008 -0.05,0.011 -0.077,0.011Z" style="fill:#2b2533;fill-rule:nonzero;"/>
        </g>
        <g transform="matrix(92,0,0,92,998.017,722.333)">
            <path d="M0.226,0.013c-0.036,-0 -0.069,-0.009 -0.099,-0.026c-0.03,-0.017 -0.054,-0.04 -0.072,-0.069c-0.018,-0.03 -0.027,-0.064 -0.027,-0.101c0,-0.032 0.007,-0.063 0.02,-0.093c0.014,-0.029 0.032,-0.056 0.055,-0.079c0.024,-0.023 0.051,-0.041 0.08,-0.054c0.03,-0.013 0.062,-0.02 0.095,-0.02c0.037,-0 0.071,0.008 0.101,0.026c0.029,0.017 0.053,0.04 0.07,0.069c0.018,0.03 0.026,0.063 0.026,0.099c0,0.033 -0.006,0.064 -0.02,0.093c-0.014,0.03 -0.032,0.057 -0.055,0.08c-0.023,0.023 -0.05,0.041 -0.08,0.054c-0.03,0.014 -0.061,0.021 -0.094,0.021Zm0.011,-0.099c0.024,-0 0.046,-0.007 0.066,-0.02c0.02,-0.013 0.036,-0.03 0.049,-0.051c0.012,-0.021 0.018,-0.043 0.018,-0.066c0,-0.03 -0.009,-0.055 -0.029,-0.076c-0.019,-0.021 -0.044,-0.031 -0.075,-0.031c-0.023,-0 -0.045,0.006 -0.066,0.019c-0.02,0.013 -0.036,0.03 -0.048,0.051c-0.013,0.02 -0.019,0.043 -0.019,0.067c0,0.03 0.01,0.055 0.029,0.076c0.02,0.02 0.045,0.031 0.075,0.031Z" style="fill:#2b2533;fill-rule:nonzero;"/>
        </g>
        <g transform="matrix(92,0,0,92,1044.34,722.333)">
            <path d="M-0.001,-0l0.104,-0.417l0.099,0l-0.011,0.045c0.018,-0.019 0.038,-0.034 0.06,-0.043c0.022,-0.009 0.045,-0.014 0.068,-0.014c0.03,-0 0.056,0.006 0.076,0.019c0.02,0.013 0.034,0.03 0.043,0.051c0.02,-0.023 0.044,-0.041 0.07,-0.053c0.026,-0.011 0.053,-0.017 0.08,-0.017c0.039,-0 0.07,0.009 0.093,0.027c0.022,0.018 0.037,0.042 0.044,0.07c0.007,0.029 0.006,0.06 -0.002,0.092l-0.061,0.24l-0.109,-0l0.06,-0.238c0.007,-0.027 0.006,-0.051 -0.005,-0.071c-0.01,-0.02 -0.03,-0.03 -0.058,-0.03c-0.022,0 -0.042,0.008 -0.062,0.023c-0.019,0.015 -0.033,0.038 -0.041,0.069l-0.062,0.247l-0.109,-0l0.06,-0.238c0.007,-0.027 0.006,-0.051 -0.005,-0.071c-0.01,-0.02 -0.03,-0.03 -0.058,-0.03c-0.022,0 -0.042,0.008 -0.062,0.023c-0.02,0.015 -0.034,0.038 -0.041,0.069l-0.062,0.247l-0.109,-0Z" style="fill:#2b2533;fill-rule:nonzero;"/>
        </g>
        <g transform="matrix(92,0,0,92,1113.98,722.333)">
            <path d="M-0.053,0.208l0.156,-0.625l0.096,0l-0.011,0.041c0.017,-0.015 0.036,-0.027 0.058,-0.036c0.021,-0.009 0.043,-0.013 0.067,-0.013c0.033,-0 0.063,0.008 0.09,0.024c0.026,0.017 0.047,0.039 0.063,0.067c0.015,0.029 0.023,0.061 0.023,0.096c0,0.033 -0.006,0.064 -0.02,0.094c-0.013,0.03 -0.031,0.056 -0.054,0.079c-0.022,0.023 -0.048,0.041 -0.077,0.054c-0.029,0.013 -0.059,0.02 -0.091,0.02c-0.025,-0 -0.048,-0.005 -0.07,-0.013c-0.022,-0.009 -0.041,-0.021 -0.058,-0.036l-0.063,0.248l-0.109,0Zm0.307,-0.297c0.024,0 0.045,-0.006 0.065,-0.019c0.02,-0.012 0.036,-0.029 0.049,-0.049c0.012,-0.021 0.018,-0.043 0.018,-0.066c-0,-0.02 -0.005,-0.038 -0.013,-0.053c-0.009,-0.016 -0.021,-0.029 -0.036,-0.038c-0.016,-0.01 -0.033,-0.015 -0.054,-0.015c-0.023,0 -0.045,0.007 -0.065,0.019c-0.02,0.013 -0.036,0.03 -0.048,0.05c-0.013,0.021 -0.019,0.043 -0.019,0.067c0,0.019 0.005,0.037 0.013,0.053c0.009,0.015 0.021,0.028 0.037,0.037c0.015,0.01 0.033,0.014 0.053,0.014Z" style="fill:#2b2533;fill-rule:nonzero;"/>
        </g>
        <g transform="matrix(92,0,0,92,1171.57,722.333)">
            <path d="M0.042,0.125l-0,-0.084l0.128,-0l-0,-0.623l-0.128,-0l-0,-0.085l0.224,0l-0,0.792l-0.224,-0Z" style="fill:#2b2533;fill-rule:nonzero;"/>
        </g>
    </g>
</svg>
